<?xml version="1.0" encoding="UTF-8"?>
<svg id="b" data-name="Слой 2" xmlns="http://www.w3.org/2000/svg" viewBox="0 0 246.81 67.61">
  <defs>
    <style>
      .e {
        font-family: Arial-BoldMT, Arial;
        font-size: 25.44px;
        font-weight: 700;
      }

      .e, .f, .g {
        isolation: isolate;
      }

      .e, .f, .h, .i {
        fill: #878787;
      }

      .f {
        font-family: ArialNarrow, 'Arial Narrow';
        font-size: 8.98px;
        letter-spacing: .18em;
      }

      .h {
        opacity: 0;
      }

      .j {
        letter-spacing: 0em;
      }

      .k {
        letter-spacing: -.09em;
      }

      .l {
        letter-spacing: .01em;
      }
    </style>
  </defs>
  <g id="c" data-name="b">
    <g id="d" data-name="c">
      <g>
        <path class="i" d="M29.41,49.3v.78c-1.56-.22-4.53-.84-7.48-2.98-1.42-1.03-4.71-3.49-5.87-8.12-.16-.62-1.25-5.27,1.32-9.86.78-1.39,1.68-2.39,2.32-3.02.02,2.42.05,4.84.07,7.27.07.38.23.63.34.62s.22-.25.23-.58c.09-2.9.18-5.8.27-8.7.04-.1.16-.43.5-.66.34-.24.7-.24.81-.23.01,6.38.02,12.76.04,19.14-.11.28-.34.76-.66.77-.4.01-.71-.74-.85-1.09-.55-1.31-1.35-3.11-2.39-5.45l1.65.1c0,.25,0,.51.01.76.21.01.43.03.64.04.03-1,.07-2.01.1-3.01-.75,0-1.5-.01-2.25-.02v-3h-.75c-.3.82-.66,2.1-.71,3.7-.03.97.01,3.45,1.44,6.08.94,1.73,2.07,2.77,2.75,3.39,2.96,2.69,6.36,3.66,8.44,4.05h.02Z"/>
        <path class="i" d="M23.45,29.1v10.48h1.5v-2.25h4.45v-8.23h-4.45v1.5h2.99c0,1.74,0,3.49,0,5.24-1,0-1.99,0-2.99,0,0-2.25,0-4.49,0-6.73,0,0-1.51,0-1.51,0Z"/>
        <path class="i" d="M32.44,29.1h-1.5v20.98h1.5v-17.23c1,0,1.99,0,2.98,0-.06.41-.08.92,0,1.5.22,1.54,1.08,2.57,1.5,3.02.25-.02.5-.04.75-.07v-.71c-1.44-.94-2.02-2.54-1.53-3.73.37-.91,1.25-1.29,1.53-1.41v-2.34h-1.5c0,.39-.03,1.4-.73,2.29-.25.32-.52.55-.76.7-.73,0-1.47-.01-2.2-.02l-.04-2.97h0Z"/>
        <path class="i" d="M39.17,29.1v1.47h2.23c.04.09.39.79.04,1.52-.22.47-.62.7-.76.77h0v1.5c.42.14,1.23.49,1.97,1.27.7.76.97,1.53,1.02,1.69.47,1.47-.08,2.82-.56,3.95-.32.76-1.2,2.57-3.17,4.3-2.22,1.93-4.59,2.68-6,2.99v.76h2.26c1.63-.74,3.92-2.08,5.87-4.42,1.33-1.59,2.01-3.04,2.32-3.82.59-1.45,1.03-2.57.79-3.91-.42-2.21-2.44-3.43-3.02-3.76.76-1.44,1.51-2.87,2.27-4.31h-5.26Z"/>
        <path class="i" d="M12.98,21.64h.73c0,7.9.01,15.81.02,23.71,0,.52.04,3.24,2.23,5.44,2.09,2.1,4.65,2.23,5.21,2.25h19.54c.72-.16,2.8-.7,4.53-2.63,1.76-1.95,2.08-4.1,2.16-4.83v-19.83c-.03-.62-.21-2.5-1.64-4.24-1.41-1.72-3.18-2.26-3.79-2.42-8.93-1.85-15.36-3.26-18.52-4.24-.6-.19-2.2-.7-4.07-.24-2.05.5-3.31,1.89-3.7,2.32-1.64,1.85-1.92,3.94-1.98,4.71h-.73c.04-.76.28-3.18,2.19-5.25,1.52-1.64,3.27-2.17,3.73-2.3,2.28-.64,4.18-.05,4.86.19,6.14,1.33,12.28,2.66,18.42,4,.67.19,3,.94,4.59,3.3,1.17,1.74,1.34,3.47,1.37,4.25,0,6.58.01,13.16.01,19.73-.08.82-.42,3.14-2.27,5.25-2,2.28-4.48,2.87-5.25,3.02h-19.4c-.51,0-4.06-.13-6.44-3.09-1.74-2.17-1.8-4.57-1.78-5.31l-.03-23.79h0Z"/>
        <g class="g">
          <text class="e" transform="translate(53.65 40.65)"><tspan x="0" y="0">У</tspan><tspan class="k" x="15.83" y="0">Р</tspan><tspan class="l" x="30.56" y="0">А</tspan><tspan class="j" x="49.25" y="0">ЛКАБЕЛЬ</tspan></text>
        </g>
        <g class="g">
          <text class="f" transform="translate(59.4 49.18)"><tspan x="0" y="0">АКЦИОНЕРНОЕ ОБЩЕСТВО</tspan></text>
        </g>
      </g>
    </g>
    <rect class="h" width="246.81" height="67.61"/>
  </g>
</svg>