<?xml version="1.0" encoding="UTF-8"?>
<svg id="b" data-name="Слой 2" xmlns="http://www.w3.org/2000/svg" viewBox="0 0 231.07 64.18">
  <defs>
    <style>
      .d {
        font-family: Commissioner-Bold, Commissioner;
        font-size: 26px;
        font-variation-settings: 'wght' 700, 'slnt' 0, 'FLAR' 0, 'VOLM' 0;
        font-weight: 700;
      }

      .d, .e, .f {
        fill: #878787;
      }

      .d, .f {
        letter-spacing: .03em;
      }

      .f {
        font-family: Commissioner-Light, Commissioner;
        font-size: 12px;
        font-variation-settings: 'wght' 300, 'slnt' 0, 'FLAR' 0, 'VOLM' 0;
        font-weight: 300;
      }
    </style>
  </defs>
  <g id="c" data-name="Слой 1">
    <g>
      <text class="d" transform="translate(53.93 35.75)"><tspan x="0" y="0">СИБКАБЕЛЬ</tspan></text>
      <text class="f" transform="translate(54.43 48.19)"><tspan x="0" y="0">АКЦИОНЕРНОЕ ОБЗЕСТВО</tspan></text>
      <path class="e" d="M40.15,47.19c0,5.04-.01,10.07-.02,15.11-2.21.85-5.75,1.92-10.17,1.89-8.78-.06-14.89-4.39-16.93-5.87C2.4,50.57.52,38.53.25,36.61c-.23-1.62-2.05-16.46,8.81-27.42C11.17,7.06,19.1-.31,30.52,0c4.13.11,7.45,1.2,9.62,2.11-.76-.03-1.86-.07-3.2-.08-4.26-.02-10.03-.06-14.02,1.08-6,1.71-11.24,7-13.73,13.11-.21.52-4.11,10.54,1.1,19.84,5.21,9.31,17.42,14.14,29.85,11.11Z"/>
      <path class="e" d="M39.13,4.2c-3.82-.68-6.88-.36-8.81,0-1.66.3-3.5.66-5.57,1.9-1.34.8-3.77,2.25-4.69,5.07-.71,2.19-.17,4.15,0,4.75,1.06,3.65,3.87,4.34,9.33,9.55,3.2,3.05,4.81,4.62,5.07,6.62.47,3.57-2.23,7.82-6.05,9.17-2.65.93-5.04.18-6.35-.22-4.21-1.31-6.53-4.42-7.32-5.6-.48-.04-.96-.08-1.43-.11.48.75,6.57,9.95,16.76,9.79.61,0,11.09-.33,14.18-7.81,2.01-4.87-.35-9.76-.6-10.26-1.46-2.9-3.73-4.51-5.34-5.65-3.68-2.6-5.61-2.16-9.2-5.26-2.71-2.34-2.93-3.72-2.94-4.42-.02-1.84,1.43-3.2,2.13-3.86,3.71-3.49,9.33-2.87,10.86-2.65-.01-.33-.03-.66-.04-.99Z"/>
    </g>
  </g>
</svg>