<?xml version="1.0" encoding="UTF-8"?>
<svg id="b" data-name="Слой 2" xmlns="http://www.w3.org/2000/svg" viewBox="0 0 215.22 79">
  <defs>
    <style>
      .e {
        fill: #f6f6f6;
      }

      .f {
        fill: #c6c6c6;
      }

      .g {
        fill: #878787;
      }

      .h {
        fill: #b2b2b2;
      }
    </style>
  </defs>
  <g id="c" data-name="Слой 1">
    <g id="d" data-name="НЗПП">
      <circle class="f" cx="39.5" cy="39.5" r="39.5"/>
      <g>
        <path class="g" d="M92.09,6.38v18.53h2.99V6.38h-2.99Z"/>
        <path class="g" d="M96.87,16.66h7.6v8.25h2.91V6.38h-2.98c0,2.59-.02,5.18-.02,7.77h-9.09c.53.83,1.06,1.67,1.59,2.5Z"/>
        <path class="g" d="M111.48,9.51c.65.64,1.31,1.29,1.96,1.93.3-.51,1.06-1.62,2.48-2.28,1.07-.5,2.01-.51,2.58-.51.61,0,1.55,0,2.55.53.44.23.96.52,1.26,1.13.27.56.22,1.11.2,1.34,0,.03-.06.57-.31,1.03-.68,1.28-2.55,1.43-2.65,1.43h-4.26v2.55h4.69c1.74.26,2.99,1.45,3.08,2.74.1,1.37-1.15,2.35-1.38,2.53-1.02.81-2.17.82-3.06.83-1.66.02-2.89-.58-3.38-.85-1.19-.66-1.91-1.52-2.27-2.02-.65.65-1.3,1.3-1.95,1.95.46.58,1.25,1.43,2.44,2.15,2.22,1.35,4.38,1.36,5.22,1.35.92,0,2.61-.05,4.38-1.04.74-.42,1.83-1.05,2.47-2.37.51-1.03.5-1.99.49-2.35,0-.48-.04-1.46-.64-2.44-.86-1.41-2.31-1.86-2.71-1.97,1.72-.79,2.84-2.41,2.84-4.14,0-2.4-2.16-3.76-2.57-4.02-1.06-.67-2.06-.77-3.29-.9-.82-.09-2.4-.23-4.24.42-1.21.43-2.01,1.03-2.26,1.22-.8.62-1.34,1.28-1.67,1.76Z"/>
        <path class="g" d="M133.22,24.95c-.97,0-1.94,0-2.91,0,.01-6.18.02-12.36.03-18.54h15.16v18.56c-.98,0-1.96-.01-2.94-.02,0-5.32,0-10.64,0-15.96-3.11,0-6.23,0-9.34,0,0,5.32,0,10.64,0,15.96Z"/>
        <path class="g" d="M153.84,24.95c-.97,0-1.94,0-2.91,0,.01-6.18.02-12.36.03-18.54h15.16v18.56c-.98,0-1.96-.01-2.94-.02,0-5.32,0-10.64,0-15.96-3.11,0-6.23,0-9.34,0,0,5.32,0,10.64,0,15.96Z"/>
        <path class="g" d="M92.13,49.63c0-6.14,0-12.28,0-18.42,2.73-.01,5.45-.03,8.18-.04.54-.01,1.94.03,3.25.98.25.18,2.16,1.61,2.11,3.91-.03,1.25-.61,2.14-.8,2.4-.59.84-1.32,1.25-1.68,1.43.45.16,1.34.56,2.1,1.45.41.48,1.25,1.65,1.2,3.27-.06,1.76-1.12,2.89-1.48,3.27-1.42,1.5-3.23,1.72-3.75,1.76h-5.86c.53-.82,1.06-1.64,1.59-2.46h3.95c.23-.03,1.08-.19,1.74-.94.69-.78.72-1.68.71-1.98,0-.3-.07-1.3-.9-2.06-.72-.67-1.57-.74-1.81-.75-1.88,0-3.76,0-5.65,0,0-.82,0-1.64,0-2.46,1.56,0,3.13,0,4.69,0,.29.02.79,0,1.32-.24.89-.42,1.66-1.43,1.57-2.59-.09-1.24-1.12-2.3-2.47-2.45-1.7,0-3.41,0-5.11,0,0,5.32,0,10.64,0,15.96h-2.92Z"/>
        <path class="g" d="M120.33,30.69c-.52-.03-5.57-.24-8.65,3.68-1.89,2.4-2.04,5.06-2.04,6.03,0,.76.03,3.4,1.88,5.87,2.89,3.85,7.64,3.85,8.24,3.84,3.15-.05,5.31-1.57,5.73-1.88.47-.34,4.12-3.09,4.09-7.83-.03-4.12-2.81-6.68-3.59-7.34-2.23-1.89-4.67-2.28-5.66-2.38-.04.93-.07,1.86-.11,2.79.7.07,2.13.31,3.46,1.36,2.38,1.88,2.5,4.82,2.49,5.71,0,.56-.05,3.53-2.41,5.44-1.66,1.34-3.52,1.4-4.16,1.41-.6.01-2.26.02-3.86-1.03-2.9-1.91-2.97-5.58-2.97-5.97,0-.54-.01-3.85,2.69-5.79,1.98-1.42,4.17-1.2,4.75-1.13.04-.93.07-1.86.11-2.79Z"/>
        <path class="g" d="M150,34.27c-.51-.67-1.62-1.95-3.5-2.78-1.74-.76-3.24-.75-4-.73-.78.02-3.02.09-5.3,1.59-2.35,1.54-3.31,3.63-3.49,4.04-.8,1.83-.77,3.43-.74,4.31.04,1.13.14,3.51,1.84,5.75.28.37,1.56,2,3.91,2.96,2.05.83,3.82.71,4.7.64.81-.07,2.11-.18,3.58-.93,1.57-.79,2.53-1.88,3.02-2.52-.66-.64-1.32-1.28-1.98-1.92-.41.53-1.31,1.55-2.84,2.2-.47.2-1.66.69-3.2.56-3.13-.28-4.82-2.89-4.95-3.08-.94-1.51-.99-2.98-1.01-3.74-.02-.75-.03-2.37.95-3.98,1.03-1.69,3.1-3.29,5.72-3.25,3.31.04,5.16,2.64,5.34,2.89.65-.67,1.3-1.34,1.94-2.01Z"/>
        <path class="g" d="M152.75,31.19v2.58h14.93v-2.58h-14.93Z"/>
        <path class="g" d="M158.7,49.64h3v-15.43c-1,.86-2,1.71-2.99,2.57,0,4.29,0,8.58,0,12.86Z"/>
        <path class="g" d="M180.33,30.59c-.52-.03-5.57-.24-8.65,3.68-1.89,2.4-2.04,5.06-2.04,6.03,0,3.24,1.56,5.44,1.88,5.87.33.45,1.68,2.2,4.16,3.21,2.67,1.09,6.58,1.3,9.82-1.04.36-.26,4.17-3.12,4.09-8.04-.07-4.21-2.94-6.79-3.59-7.34-2.23-1.89-4.67-2.28-5.66-2.38-.04.93-.07,1.86-.11,2.79.7.07,2.13.31,3.46,1.36,2.38,1.88,2.5,4.82,2.49,5.71,0,.56-.05,3.53-2.41,5.44-1.66,1.34-3.52,1.4-4.16,1.41-.6.01-2.26.02-3.86-1.03-2.96-1.95-2.97-5.71-2.97-5.97,0-.5.11-3.62,2.73-5.58,1.97-1.47,4.11-1.38,4.71-1.33.04-.93.07-1.86.11-2.79Z"/>
        <path class="g" d="M196.97,39.79c2.83-2.86,5.66-5.72,8.49-8.58h3.8c-3,2.95-6.01,5.91-9.01,8.86l9.94,9.57h-4.06c-3.05-2.96-6.11-5.92-9.16-8.88v8.89h-3c0-6.14,0-12.29,0-18.43h2.99c0,2.86,0,5.72,0,8.58Z"/>
      </g>
      <path class="g" d="M92.31,55.98v.44h122.91v-.44h-122.91Z"/>
      <g>
        <path class="h" d="M92.08,64.62l1.04,1.04c.22-.28.69-.79,1.45-1.14.76-.34,1.42-.34,1.56-.33.3,0,1.28.04,2.14.78.93.8,1.07,1.87,1.1,2.12-1.68,0-3.35,0-5.03,0,.47.41.94.82,1.41,1.24,1.24,0,2.47,0,3.71,0-.02.32-.09.82-.35,1.38-.1.22-.32.68-.76,1.08-.77.7-1.72.77-2.01.79-1.78.12-3.03-1.18-3.23-1.39-.32.32-.64.65-.97.97.29.3,1.73,1.75,3.96,1.76.44,0,1.83,0,3.1-.99,1.86-1.44,1.87-3.76,1.87-4.12,0-.48-.1-2.48-1.74-3.86-1.22-1.02-2.57-1.11-2.96-1.13-2.41-.12-4.02,1.53-4.28,1.8Z"/>
        <path class="h" d="M102.01,71.42v1.23h1.58c.16-.04.52-.14.83-.45.49-.49.5-1.12.5-1.24.29-2.2.58-4.41.87-6.61,1.12,0,2.24,0,3.36.01v8.28h1.49v-9.6h-6.16c-.29,2.51-.58,5.02-.87,7.53-.01.1-.05.28-.19.47-.19.26-.44.35-.53.38-.29,0-.59,0-.88,0Z"/>
        <path class="h" d="M120.08,64.36v-1.23c-2.17,0-4.34,0-6.52,0v9.52h6.52v-1.23c-1.7,0-3.4-.01-5.1-.02v-7.05c1.7,0,3.4,0,5.1,0Z"/>
        <path class="h" d="M115.24,67.18c.28.44.57.88.85,1.32h3.73v-1.32h-4.58Z"/>
        <path class="h" d="M123.88,72.63h-1.4c0-3.2,0-6.39-.01-9.59h1.76c1.12,2.33,2.23,4.66,3.35,6.99,1.13-2.33,2.26-4.66,3.38-6.99h1.72c0,3.2,0,6.41.01,9.61h-1.5c0-2.44,0-4.88,0-7.32-1.03,2.12-2.06,4.23-3.09,6.35-.35,0-.71,0-1.06,0-1.06-2.12-2.12-4.25-3.17-6.37,0,2.44,0,4.88,0,7.32Z"/>
        <path class="h" d="M142.17,64.42v-1.23c-2.17,0-4.34,0-6.52,0v9.52h6.52v-1.23c-1.7,0-3.4-.01-5.1-.02v-7.05c1.7,0,3.4,0,5.1,0Z"/>
        <path class="h" d="M137.32,67.24c.28.44.57.88.85,1.32h3.73v-1.32h-4.58Z"/>
        <path class="h" d="M144.48,63.06v9.64h1.57v-9.64h-1.57Z"/>
        <path class="h" d="M147,68.41h3.99v4.29h1.53v-9.64h-1.57c0,1.35,0,2.7-.01,4.04h-4.78c.28.43.56.87.84,1.3Z"/>
        <path class="h" d="M154.61,63.02v1.35h7.84v-1.35h-7.84Z"/>
        <path class="h" d="M157.73,72.71h1.58v-8.11c-.52.45-1.05.9-1.57,1.35,0,2.25,0,4.51,0,6.76Z"/>
      </g>
      <path class="e" d="M12.43,37.82c.16-2.61.83-7.84,4.28-13.17,4.95-7.65,12.28-10.37,14.61-11.13.75-.46,1.03-1.42.64-2.2-.38-.75-1.28-1.12-2.09-.83-2.56.87-10.56,3.96-16.08,12.44-1.57,2.42-4.94,8.35-4.95,16.57,0,10.73,5.73,17.92,7.33,19.8,4.94,5.79,10.76,8.22,13.52,9.17,1.09.32,2.13-.27,2.38-1.06.27-.89-.45-2.11-1.74-2.27-2.4-.86-7.44-3.05-11.7-8.15-5.33-6.39-6.11-13.34-6.26-15.79,2.97.01,5.94.02,8.91.03.95,9.32,8.87,16.48,18.2,16.52,9.38.03,17.37-7.16,18.33-16.52,2.95-.01,5.91-.02,8.86-.04-.18,2.63-.83,6.81-3.25,11.22-4.6,8.39-12.33,11.68-14.79,12.61-1.11.28-1.7,1.39-1.43,2.27.29.94,1.54,1.53,2.64.99,12.38-4.45,20.58-16.33,20.33-29.38-.24-12.73-8.49-24.08-20.6-28.31-.79-.43-1.8-.17-2.28.59-.47.75-.29,1.75.42,2.29,2.31.74,8.18,2.96,12.93,8.89,5.06,6.32,5.76,13.01,5.9,15.39-2.92-.01-5.85-.02-8.77-.03-.92-9.35-8.89-16.56-18.27-16.55-9.41,0-17.37,7.27-18.25,16.65,1.11,0,2.23,0,3.34,0,1.03-7.64,7.52-13.31,14.91-13.33,8.04-.02,15.04,6.67,15.01,15.02-.03,8.34-7.06,14.95-15.01,14.91-8.47-.05-15.58-7.63-14.91-16.6-4.06,0-8.12.01-12.17.02Z"/>
    </g>
  </g>
</svg>