<?xml version="1.0" encoding="UTF-8"?>
<svg id="b" data-name="Слой 2" xmlns="http://www.w3.org/2000/svg" viewBox="0 0 246.81 67.61">
  <defs>
    <style>
      .d {
        font-family: ArialNarrow-Bold, 'Arial Narrow';
        font-size: 34px;
        font-weight: 700;
        letter-spacing: 0em;
      }

      .d, .e, .f {
        fill: #878787;
      }

      .f {
        font-family: ArialNarrow, 'Arial Narrow';
        font-size: 12px;
        letter-spacing: .18em;
      }
    </style>
  </defs>
  <g id="c" data-name="Слой 1">
    <g>
      <path class="e" d="M21.95,47.45v1.04c-2.09-.29-6.05-1.12-9.99-3.98-1.9-1.38-6.29-4.67-7.85-10.85-.21-.83-1.67-7.04,1.76-13.17,1.04-1.86,2.24-3.19,3.1-4.03.03,3.24.07,6.47.1,9.71.09.51.31.84.46.83.15-.01.29-.34.31-.77.12-3.87.24-7.75.36-11.62.05-.14.22-.57.67-.88.46-.32.93-.32,1.08-.31.02,8.52.03,17.05.05,25.57-.15.37-.46,1.02-.88,1.03-.53.02-.95-.99-1.14-1.45-.73-1.75-1.8-4.16-3.2-7.28l2.21.14c0,.34.01.68.02,1.01.28.02.57.04.85.06.04-1.34.09-2.68.13-4.02-1,0-2-.02-3-.03,0-1.34,0-2.68,0-4.01h-1c-.4,1.1-.88,2.81-.95,4.95-.04,1.3.02,4.61,1.93,8.12,1.25,2.31,2.76,3.7,3.67,4.53,3.96,3.59,8.5,4.89,11.28,5.41Z"/>
      <path class="e" d="M13.99,20.45v14.01h2.01v-3.01h5.95v-11h-5.94c0,.67,0,1.33,0,2,1.33,0,2.66,0,3.99,0,0,2.33,0,4.67-.01,7-1.33,0-2.66,0-3.99-.01,0-3,0-6,.01-8.99h-2.02Z"/>
      <path class="e" d="M26.01,20.45h-2v28.04h2v-23.03c1.33,0,2.66,0,3.98-.01-.08.55-.11,1.23,0,2.01.3,2.06,1.44,3.44,2,4.04.33-.03.67-.06,1-.09v-.95c-1.93-1.25-2.7-3.4-2.05-4.98.5-1.21,1.67-1.73,2.05-1.89v-3.13h-2c0,.52-.04,1.87-.98,3.06-.34.43-.7.73-1.01.94-.98,0-1.96-.02-2.94-.03l-.05-3.97Z"/>
      <path class="e" d="M34.99,20.45v1.97h2.98c.06.12.52,1.06.06,2.03-.3.63-.83.93-1.02,1.03h0v2.01c.56.19,1.65.65,2.63,1.7.94,1.01,1.29,2.05,1.36,2.26.63,1.96-.11,3.77-.75,5.28-.43,1.02-1.6,3.44-4.23,5.74-2.96,2.58-6.13,3.58-8.02,4v1.01h3.02c2.18-.99,5.24-2.78,7.85-5.91,1.78-2.13,2.68-4.06,3.1-5.11.79-1.94,1.38-3.43,1.05-5.22-.56-2.95-3.26-4.59-4.04-5.03,1.01-1.92,2.02-3.84,3.04-5.76h-7.02Z"/>
      <path class="e" d="M0,10.48h.98c0,10.56.02,21.12.03,31.68,0,.69.05,4.33,2.98,7.27,2.79,2.8,6.22,2.98,6.96,3h26.11c.96-.21,3.74-.94,6.06-3.51,2.35-2.6,2.78-5.48,2.88-6.45V15.97c-.04-.83-.28-3.34-2.19-5.67-1.89-2.3-4.25-3.02-5.06-3.23C26.82,4.6,18.23,2.71,14,1.41c-.8-.25-2.94-.93-5.44-.32-2.74.67-4.42,2.52-4.94,3.1C1.43,6.66,1.06,9.46.98,10.48h-.98c.06-1.02.38-4.25,2.93-7.02C4.96,1.27,7.3.56,7.91.38c3.05-.85,5.59-.07,6.49.26,8.2,1.78,16.41,3.56,24.61,5.34.9.26,4.01,1.26,6.13,4.41,1.56,2.32,1.79,4.64,1.83,5.68,0,8.79.02,17.58.02,26.37-.11,1.09-.56,4.19-3.03,7.01-2.67,3.05-5.98,3.83-7.02,4.03H11.02c-.68-.01-5.43-.17-8.6-4.13C.1,46.45.02,43.24.04,42.26l-.04-31.79Z"/>
      <text class="d" transform="translate(54.35 35.89)"><tspan x="0" y="0">УРАЛКАБЕЛЬ</tspan></text>
      <text class="f" transform="translate(62.03 47.29)"><tspan x="0" y="0">АКЦИОНЕРНОЕ ОБЩЕСТВО</tspan></text>
    </g>
  </g>
</svg>