<?xml version="1.0" encoding="UTF-8"?>
<svg id="b" data-name="Слой 2" xmlns="http://www.w3.org/2000/svg" viewBox="0 0 258.88 78.07">
  <defs>
    <style>
      .d {
        fill: #878787;
      }
    </style>
  </defs>
  <g id="c" data-name="Слой 1">
    <g>
      <path class="d" d="M1,61.62h4.61c.48-.18,1.52-.64,2.36-1.73.56-.74.81-1.47.92-1.93.99-5.13,2.04-10.31,3.14-15.54,2.13-10.14,4.38-20.03,6.72-29.67.32-1.6.87-3.59,1.85-5.76.86-1.91,1.83-3.48,2.7-4.69.09-.14,1.41-2.24,3.92-2.3,2.18-.05,3.52,1.49,3.69,1.69.65,1,1.36,2.26,1.97,3.76.83,2.01,1.24,3.84,1.46,5.29.68,3.21,1.34,6.45,1.98,9.72,3.32,17.06,5.69,33.58,7.3,49.46.3,1.39.73,2.92,1.29,2.92.45,0,.76-.97,1.24-2.31,2.47-6.89,3.93-7.92,4.52-8.27.48-.28,1.29-.63,2.54-.65,60.85,0,121.7,0,182.55,0-.31,1.54-.62,3.07-.93,4.61-60.47,0-120.93-.02-181.4-.03-1.15,2.83-2.3,5.66-3.44,8.49-.15.48-.5,1.37-1.33,2.13,0,0-1.59,1.46-3.95,1.21-2.42-.25-4.6-2.5-5.3-5.63-.29-.93-.58-1.85-.87-2.78-.58-4.13-1.45-10.35-2.5-17.95-1.33-9.73-1.65-12.24-2.16-15.84-.93-6.5-2.42-15.84-4.81-27.41-.52-2.16-1.1-3.25-1.74-3.29-1-.06-2.15,2.42-3.45,7.43-1.8,6.73-3.54,13.71-5.19,20.92-2,8.74-3.73,17.22-5.22,25.42-.22.87-1.19,4.24-4.46,6.2-1.38.82-2.71,1.12-3.64,1.24-1.79.02-3.58.03-5.37.05.33-1.59.67-3.18,1-4.77Z"/>
      <path class="d" d="M241.94,59.5c-.59,3.01-1.18,6.01-1.76,9.02,6.23-1.33,12.46-2.67,18.7-4-5.64-1.67-11.29-3.35-16.93-5.02Z"/>
      <path class="d" d="M63.43,23.45c-2.12,10.92-4.24,21.84-6.36,32.77,3.41,0,6.83,0,10.24,0,1.79-8.67,3.58-17.34,5.37-26.02.19,0,.38,0,.57,0,.32,8.67.64,17.35.97,26.02,3.42,0,6.83,0,10.25,0,3.97-8.67,7.94-17.35,11.92-26.02.19,0,.37,0,.56,0-1.79,8.67-3.58,17.35-5.36,26.02h10.98c2.32-10.93,4.63-21.85,6.95-32.78h-18.5c-2.76,6.11-5.52,12.22-8.28,18.32-.2-6.11-.4-12.21-.6-18.32-6.23,0-12.46,0-18.7.01Z"/>
      <path class="d" d="M126.05,33.44c.39-2.44.77-4.88,1.16-7.32-1.65-.17-4.45-.26-7.69.74-1.22.38-3.51,1.1-5.86,3.01-.96.78-3.65,3.02-4.95,6.98-.52,1.58-2.18,6.62.79,10.61,1.9,2.56,4.72,3.36,5.82,3.61.78.21,1.7.39,2.72.5,1.38.15,2.61.12,3.62.03-.36,1.76-.72,3.51-1.08,5.27h13.01c.36-1.83.72-3.66,1.08-5.48.93.22,7.49,1.65,13.15-2.65,3.91-2.97,5.23-7.04,5.66-8.91.42-1.8,1.23-5.25-.41-8.37-2.1-3.99-7.51-6.11-13.46-5.33.36-1.65.72-3.3,1.08-4.95l-12.49-.05c3.08,4.1,6.17,8.2,9.25,12.31,1.91-.13,2.82.58,3.13.86,1.99,1.82,1.27,6.34-1.28,8.44-1.36,1.12-2.94,1.31-3.77,1.34-3.16-3.55-6.32-7.1-9.48-10.65-.68,3.54-1.35,7.07-2.03,10.61-2.08.16-3.06-.65-3.34-.92-1.96-1.84-1.17-6.2,1.3-8.28,1.49-1.25,3.25-1.4,4.07-1.42Z"/>
      <path class="d" d="M135.53,44.08c.64-3.55,1.28-7.1,1.92-10.64-3.08-4.1-6.17-8.2-9.25-12.31-.72,4.1-1.43,8.2-2.15,12.3,3.16,3.55,6.32,7.1,9.48,10.65Z"/>
      <path class="d" d="M156.73,23.45c-.64,3.15-1.28,6.29-1.93,9.44,3.72,0,7.44,0,11.16,0-1.6,7.78-3.2,15.55-4.8,23.33,4.11,0,8.21,0,12.32,0,1.61-7.77,3.22-15.54,4.83-23.31,3.73,0,7.45,0,11.18,0,.64-3.15,1.28-6.29,1.92-9.44h-34.68Z"/>
      <path class="d" d="M194.51,23.45c-2.24,10.92-4.49,21.84-6.73,32.76h14.58c4-6.17,8-12.33,12-18.5.13,0,.25,0,.38,0v.97c-1.21,5.85-2.43,11.69-3.64,17.54,4.05,0,8.11,0,12.16,0,2.35-10.92,4.71-21.84,7.06-32.76h-14.87c-4.03,6.23-8.05,12.46-12.08,18.69h-.4l3.85-18.69h-12.31Z"/>
    </g>
  </g>
</svg>