<svg xmlns="http://www.w3.org/2000/svg" viewBox="0 0 1000 1000" role="img" aria-label="Max">
  <rect width="1000" height="1000" rx="220" fill="#496db3" />
  <path
    fill="#ffffff"
    d="M512.0947266,308.1917419c-99.421875-5.2137451-177.0074768,63.7746277-194.1162109,171.7529297
    c-14.1681519,89.4194031,10.9517212,198.377655,32.4380493,203.8618469
    c9.1132812,2.3260498,31.0438538-14.447998,46.9994507-29.4939575c2.9996643-2.8286133,7.5354309-3.3046265,11.0531616-1.1536255
    c24.8721313,15.2089233,53.0321655,26.6383667,84.07724,28.2663574
    c102.068512,5.352417,192.52005-74.5308838,197.8663025-176.6076965
    C695.7590332,402.7408142,614.163208,313.5441895,512.0947266,308.1917419z M345.6054993,826.5784302
    c-3.8494568-2.7254639-9.1531067-1.9857788-12.3791809,1.4550171
    c-43.119812,45.9900513-153.4740906,78.2501221-158.5290833,15.4796143c0-49.1799927-11.0461426-90.6229248-23.2081757-136.2524414
    c-14.8953705-55.8845825-31.4645691-118.0489502-31.4645691-208.3983765
    c0-215.4476624,176.6943207-377.4747925,386.1940918-377.4747925S879.975708,291.3253784,879.975708,500.9545898
    S710.4901733,876.3369751,508.2009583,876.3369751C436.4336243,876.3369751,401.6072693,866.2283936,345.6054993,826.5784302z"
  />
</svg>

