<?xml version="1.0" encoding="UTF-8"?>
<svg id="b" data-name="Слой 2" xmlns="http://www.w3.org/2000/svg" viewBox="0 0 449.72 380.33">
  <defs>
    <style>
      .d {
        fill: #496db3;
      }

      .e {
        fill: #e62b30;
      }

      .f {
        fill: #4a6db3;
      }

      .g {
        fill: none;
        stroke: #d1d2d4;
        stroke-miterlimit: 10;
        stroke-width: 25px;
      }
    </style>
  </defs>
  <g id="c" data-name="Слой 1">
    <path class="g" d="M224.79,14.3c66.41,36.94,132.81,73.88,199.22,110.83-66.41,36.94-132.81,73.88-199.22,110.83-66.36-37.05-132.73-74.11-199.09-111.16C92.06,87.96,158.43,51.13,224.79,14.3Z"/>
    <path class="d" d="M107.49,132.23c8.53,4.79,17.05,9.59,25.58,14.38,30.58-17.01,61.15-34.02,91.73-51.03,30.43,17.01,60.85,34.02,91.28,51.03,8.53-4.71,17.05-9.42,25.58-14.13-38.93-21.68-77.86-43.35-116.8-65.03l-117.37,64.78Z"/>
    <path class="e" d="M224.57,129.93c-20.21,11.38-40.43,22.77-60.64,34.15,8.5,4.71,17,9.43,25.49,14.14l35.15-19.81,35.53,19.81c8.4-4.75,16.8-9.5,25.2-14.25-20.24-11.35-40.49-22.7-60.73-34.05Z"/>
    <path class="e" d="M35.62,235.43c-11.73,6.63-23.46,13.27-35.2,19.9,74.79,41.66,149.58,83.33,224.37,124.99,74.73-41.66,149.45-83.33,224.18-124.99-11.86-6.63-23.73-13.27-35.59-19.9-8.32,4.59-16.63,9.17-24.95,13.76,3.27,2.05,6.54,4.1,9.81,6.15-57.82,32.23-115.64,64.45-173.46,96.68-57.97-32.32-115.95-64.64-173.92-96.96,3.42-1.96,6.85-3.91,10.27-5.87-8.51-4.59-17.02-9.17-25.53-13.76Z"/>
    <path class="f" d="M51.48,192.14c4.63-2.74,9.26-5.49,13.88-8.23-8.46-4.57-16.91-9.14-25.37-13.71-13.19,7.31-26.38,14.63-39.57,21.94,74.72,41.58,149.43,83.17,224.15,124.75,74.8-41.63,149.6-83.27,224.4-124.9-13.17-7.26-26.34-14.53-39.51-21.79-8.51,4.68-17.02,9.36-25.53,14.04,4.1,1.96,8.2,3.93,12.31,5.89-57.22,33.29-114.45,66.57-171.67,99.86-57.7-32.62-115.39-65.24-173.09-97.85Z"/>
  </g>
</svg>
