<?xml version="1.0" encoding="UTF-8"?>
<svg id="b" data-name="Слой 2" xmlns="http://www.w3.org/2000/svg" viewBox="0 0 109.18 13.83">
  <defs>
    <style>
      .f {
        fill: #496db3;
      }

      .g {
        fill: #fff;
        stroke: #4c6eb4;
        stroke-width: .5px;
      }

      .g, .h {
        stroke-miterlimit: 10;
      }

      .i {
        fill: #e62b30;
      }

      .j {
        fill: #4a6db3;
      }

      .k {
        fill: #4c6eb4;
      }

      .h {
        fill: none;
        stroke: #d1d2d4;
        stroke-width: .89px;
      }
    </style>
  </defs>
  <g id="c" data-name="b">
    <g id="d" data-name="c">
      <g id="e" data-name="d">
        <path class="h" d="M7.99.51c2.36,1.31,4.72,2.63,7.08,3.94-2.36,1.31-4.72,2.63-7.08,3.94-2.36-1.32-4.72-2.63-7.08-3.95C3.27,3.13,5.63,1.82,7.99.51Z"/>
        <path class="f" d="M3.82,4.7c.3.17.61.34.91.51,1.09-.6,2.17-1.21,3.26-1.81,1.08.6,2.16,1.21,3.25,1.81.3-.17.61-.33.91-.5-1.38-.77-2.77-1.54-4.15-2.31l-4.17,2.3h0Z"/>
        <path class="i" d="M7.98,4.62c-.72.4-1.44.81-2.16,1.21.3.17.6.34.91.5l1.25-.7,1.26.7c.3-.17.6-.34.9-.51-.72-.4-1.44-.81-2.16-1.21h0Z"/>
        <path class="i" d="M1.27,8.37c-.42.24-.83.47-1.25.71,2.66,1.48,5.32,2.96,7.98,4.44,2.66-1.48,5.31-2.96,7.97-4.44-.42-.24-.84-.47-1.27-.71-.3.16-.59.33-.89.49.12.07.23.15.35.22-2.06,1.15-4.11,2.29-6.17,3.44-2.06-1.15-4.12-2.3-6.18-3.45.12-.07.24-.14.37-.21-.3-.16-.61-.33-.91-.49h0Z"/>
        <path class="j" d="M1.83,6.83c.16-.1.33-.2.49-.29-.3-.16-.6-.32-.9-.49-.47.26-.94.52-1.41.78,2.66,1.48,5.31,2.96,7.97,4.44,2.66-1.48,5.32-2.96,7.98-4.44-.47-.26-.94-.52-1.4-.77-.3.17-.61.33-.91.5.15.07.29.14.44.21-2.03,1.18-4.07,2.37-6.1,3.55-2.05-1.16-4.1-2.32-6.15-3.48h-.01Z"/>
      </g>
      <rect class="g" x="17.68" y=".8" width=".51" height="12.43"/>
      <g>
        <path class="k" d="M20.42,5.77V.93h1.07v4.83h-1.07ZM21.43,5.77v-.75h3.31v.75h-3.31ZM23.11,5.77V.93h1.07v4.83h-1.07ZM23.98,6.82l-.09-1.11h.85v1.11h-.76Z"/>
        <path class="k" d="M26.39.91h.78c.27,0,.53,0,.79.02.26,0,.5.03.72.05l-.05.78h-1.85c-.12,0-.2.03-.26.09s-.09.15-.09.27v2.46c0,.12.03.21.09.27s.15.09.26.09h1.85l.05.78c-.22.02-.47.03-.72.05-.26.01-.52.02-.79.02h-.78c-.31,0-.56-.09-.75-.27s-.28-.41-.28-.7V1.89c0-.29.09-.53.28-.71s.44-.27.75-.27ZM25.48,2.87h2.89v.76h-2.89v-.76Z"/>
        <path class="k" d="M30.53.93v4.83h-1.07V.93h1.07ZM32.33,2.79v.81h-1.85v-.81h1.85ZM33.32.93v4.83h-1.07V.93h1.07Z"/>
        <path class="k" d="M37.92.93v.84h-3.98v-.84s3.98,0,3.98,0ZM36.46.93v4.83h-1.07V.93h1.07Z"/>
        <path class="k" d="M40.4.87c.45,0,.8.05,1.06.14.26.09.44.25.55.48s.16.55.16.96-.05.73-.16.96-.28.39-.51.48c-.24.09-.56.14-.97.14-.21,0-.42,0-.63-.03-.21-.02-.4-.04-.57-.07-.18-.03-.33-.06-.46-.09-.13-.03-.21-.06-.26-.09l.02-.53h1.74c.19,0,.33-.03.44-.07s.18-.12.22-.23c.04-.11.07-.27.07-.47s-.02-.36-.07-.48c-.04-.11-.12-.19-.22-.23s-.25-.07-.44-.07h-1.11c-.31,0-.52,0-.62.03l-.1-.77c.2-.02.38-.04.55-.05.17,0,.36-.02.56-.02h.75,0ZM39.6.93v4.83h-1.07V.93h1.07Z"/>
        <path class="k" d="M45.46.93v1.37c0,.16,0,.32-.03.48s-.06.31-.11.45c.04.15.07.29.1.44s.05.29.05.42v1.67h-1.06V.93h1.06,0ZM46.05,2.88v.74h-.87v-.74h.87ZM48.12.93c-.1.32-.19.6-.27.84s-.16.45-.23.62c-.07.17-.16.32-.25.43-.09.11-.2.2-.33.27s-.28.11-.47.13v.04c.2.02.36.07.49.13.13.06.25.15.35.27s.19.27.27.46.17.42.26.69.19.58.31.95h-1.12c-.13-.42-.24-.76-.33-1.04-.09-.28-.18-.49-.27-.65-.09-.16-.19-.28-.31-.35-.12-.07-.28-.1-.47-.1v-.74c.18,0,.33-.04.45-.12s.23-.19.31-.35c.09-.16.17-.36.25-.6.08-.24.16-.54.26-.88h1.1Z"/>
        <path class="k" d="M51.17.93c.09,0,.17.03.23.08.07.05.11.12.14.2l1.4,4.55h-1.09l-.99-3.55c-.02-.08-.04-.16-.06-.24s-.04-.16-.05-.23h-.19c0,.07-.03.15-.05.23s-.04.16-.06.24l-.99,3.55h-1.1l1.41-4.55c.02-.08.07-.15.14-.2s.15-.08.23-.08h1.03ZM51.91,3.69v.81h-2.51v-.81s2.51,0,2.51,0Z"/>
        <path class="k" d="M56.64.93v.84h-3.98v-.84s3.98,0,3.98,0ZM55.19.93v4.83h-1.07V.93h1.07Z"/>
        <path class="k" d="M59.55.93c.09,0,.17.03.23.08.07.05.11.12.14.2l1.4,4.55h-1.09l-.99-3.55c-.02-.08-.04-.16-.06-.24s-.04-.16-.05-.23h-.19c0,.07-.03.15-.05.23s-.04.16-.06.24l-.99,3.55h-1.1l1.41-4.55c.02-.08.07-.15.14-.2s.15-.08.23-.08h1.03ZM60.3,3.69v.81h-2.51v-.81s2.51,0,2.51,0Z"/>
        <path class="k" d="M65.49.93v.75h-1.6c-.28,0-.42.14-.44.41-.03.31-.05.59-.08.85-.02.26-.05.5-.08.71-.03.21-.07.41-.11.59s-.09.34-.15.49c-.1.28-.22.51-.38.67-.15.16-.33.27-.54.33s-.43.07-.69.05l-.08-.83c.15-.03.29-.08.41-.15s.21-.19.28-.36c.04-.1.08-.21.11-.33.03-.11.06-.24.09-.38.03-.14.05-.29.07-.47.02-.17.04-.37.06-.58.02-.21.04-.45.06-.72.05-.7.42-1.05,1.12-1.05h1.94v.02ZM65.59.93v4.83h-1.07V.93h1.07Z"/>
        <path class="k" d="M68.51.84c.38,0,.71.04.97.12.27.08.48.22.64.41s.28.45.35.77.11.73.11,1.21-.04.89-.11,1.21-.19.58-.35.77-.37.32-.64.41c-.27.08-.59.12-.97.12s-.71-.04-.97-.12-.48-.22-.64-.41c-.16-.19-.28-.45-.36-.77-.07-.32-.11-.73-.11-1.21s.04-.89.11-1.21.19-.58.36-.77c.16-.19.38-.32.64-.41.27-.08.59-.12.97-.12ZM68.51,1.68c-.25,0-.44.05-.58.15-.14.1-.24.27-.29.51-.06.24-.09.58-.09,1.01s.03.77.09,1.01c.06.24.16.41.29.51s.33.15.58.15.43-.05.57-.15.24-.27.29-.51c.06-.24.09-.58.09-1.01s-.03-.77-.09-1.01-.16-.41-.29-.51-.33-.15-.57-.15Z"/>
        <path class="k" d="M72.4.91c.37,0,.74,0,1.12,0,.38,0,.73.03,1.05.07l-.05.77h-1.68c-.13,0-.22.03-.29.09-.07.06-.1.16-.1.28v3.63h-1.07V1.92c0-.3.09-.54.28-.73s.43-.28.72-.28h.02Z"/>
        <path class="k" d="M79.15.93v4.83h-1.02v-2.87c0-.11,0-.22.01-.33,0-.11.02-.22.04-.33h-.04c-.04.11-.08.22-.13.33-.05.1-.1.21-.15.31l-1.66,2.88h-1.04V.93h1.02v2.81c0,.11,0,.22-.02.33s-.02.23-.04.35h.04c.04-.11.09-.22.14-.33s.1-.21.16-.31l1.65-2.86h1.04,0Z"/>
        <path class="k" d="M81.5.88c.42,0,.74.04.99.11.24.07.42.2.52.38s.16.44.16.77-.06.61-.19.79-.34.28-.64.31v.04c.36.03.62.16.76.37.14.22.21.52.21.91,0,.33-.05.59-.17.77-.11.18-.28.31-.52.38s-.54.11-.92.11c-.26,0-.5,0-.71-.02-.21-.01-.41-.04-.6-.07-.19-.03-.37-.07-.55-.12l.08-.72c.27.04.53.07.79.09s.53.04.79.04c.18,0,.32-.02.42-.05.1-.04.18-.1.22-.2s.07-.23.07-.42-.02-.34-.07-.44c-.04-.1-.12-.17-.23-.22-.11-.04-.25-.06-.44-.06h-.95v-.73h.94c.16,0,.28-.03.37-.06.09-.03.16-.09.2-.18.04-.09.06-.21.06-.37s-.02-.29-.06-.38-.11-.15-.21-.18-.24-.05-.41-.05c-.26,0-.5,0-.72.03s-.45.04-.68.06l-.08-.75c.23-.05.47-.09.71-.11s.52-.03.84-.03h.02Z"/>
        <path class="k" d="M86.43.93c.09,0,.17.03.23.08s.11.12.14.2l1.4,4.55h-1.09l-.99-3.55c-.02-.08-.04-.16-.06-.24s-.04-.16-.05-.23h-.19c-.01.07-.03.15-.05.23s-.04.16-.06.24l-.99,3.55h-1.1l1.41-4.55c.02-.08.07-.15.14-.2.07-.05.15-.08.23-.08h1.03ZM87.17,3.69v.81h-2.51v-.81s2.51,0,2.51,0Z"/>
        <path class="k" d="M88.71,5.77V.93h1.07v4.83h-1.07ZM89.72,5.77v-.75h3.31v.75h-3.31ZM91.4,5.77V.93h1.07v4.83h-1.07ZM92.27,6.82l-.09-1.11h.85v1.11h-.76Z"/>
        <path class="k" d="M97.68.93v4.83h-1.02v-2.87c0-.11,0-.22.01-.33,0-.11.02-.22.04-.33h-.04c-.04.11-.08.22-.13.33-.05.1-.1.21-.15.31l-1.66,2.88h-1.04V.93h1.02v2.81c0,.11,0,.22-.02.33s-.02.23-.04.35h.04c.04-.11.09-.22.14-.33s.1-.21.16-.31l1.65-2.86h1.04,0Z"/>
        <path class="k" d="M102.67.93v4.83h-1.02v-2.87c0-.11,0-.22.01-.33,0-.11.02-.22.04-.33h-.04c-.04.11-.08.22-.13.33-.05.1-.1.21-.15.31l-1.66,2.88h-1.04V.93h1.02v2.81c0,.11,0,.22-.02.33s-.02.23-.04.35h.04c.04-.11.09-.22.14-.33s.1-.21.16-.31l1.65-2.86h1.04,0Z"/>
        <path class="k" d="M109.18.93v4.83h-1.02v-2.87c0-.11,0-.22.01-.33,0-.11.02-.22.04-.33h-.04c-.04.11-.08.22-.13.33-.05.1-.1.21-.15.31l-1.66,2.88h-1.04V.93h1.02v2.81c0,.11,0,.22-.02.33s-.02.23-.04.35h.04c.04-.11.09-.22.14-.33s.1-.21.16-.31l1.65-2.86h1.04,0Z"/>
        <path class="k" d="M24.4,7.93v4.83h-1.02v-2.87c0-.11,0-.22.01-.33s.02-.22.04-.33h-.04c-.04.11-.08.22-.13.33-.05.1-.1.21-.15.31l-1.66,2.88h-1.04v-4.83h1.02v2.81c0,.11,0,.22-.02.33s-.02.23-.04.35h.03c.04-.11.09-.22.14-.33s.1-.21.16-.31l1.65-2.86h1.04v.02Z"/>
        <path class="k" d="M29.21,7.93c.09,0,.17.03.23.08.07.05.11.12.14.2l1.4,4.55h-1.09l-.99-3.55c-.02-.08-.04-.16-.06-.24-.02-.08-.04-.16-.05-.23h-.19c-.01.07-.03.15-.05.23-.02.08-.04.16-.06.24l-.99,3.55h-1.1l1.41-4.55c.02-.08.07-.15.14-.2s.15-.08.23-.08h1.03ZM29.95,10.69v.8h-2.51v-.8h2.51Z"/>
        <path class="k" d="M32.56,7.93v4.83h-1.07v-4.83h1.07ZM34.36,9.79v.8h-1.85v-.8h1.85ZM35.35,7.93v4.83h-1.07v-4.83h1.07Z"/>
        <path class="k" d="M38.65,7.93c.09,0,.17.03.23.08.07.05.11.12.14.2l1.4,4.55h-1.09l-.99-3.55-.06-.24c-.02-.08-.04-.16-.05-.23h-.19c0,.07-.03.15-.05.23l-.06.24-.99,3.55h-1.1l1.41-4.55c.02-.08.07-.15.14-.2s.15-.08.23-.08h1.03ZM39.39,10.69v.8h-2.51v-.8h2.51Z"/>
        <path class="k" d="M44.58,7.93v.75h-1.6c-.28,0-.42.14-.44.41-.03.31-.05.59-.08.85-.02.26-.05.5-.08.71-.03.21-.07.41-.11.59s-.09.34-.15.49c-.1.29-.22.51-.38.67-.15.16-.33.27-.54.33-.21.06-.43.07-.69.05l-.08-.83c.15-.03.29-.08.41-.15s.21-.19.28-.36c.04-.1.08-.21.11-.33s.06-.24.09-.38.05-.29.07-.47c.02-.17.04-.36.06-.58.02-.21.04-.45.06-.72.05-.7.42-1.05,1.12-1.05h1.94v.02ZM44.69,7.93v4.83h-1.07v-4.83h1.07Z"/>
        <path class="k" d="M49.68,7.93v4.83h-1.02v-2.87c0-.11,0-.22,0-.33s.02-.22.04-.33h-.04c-.04.11-.08.22-.13.33-.05.1-.1.21-.15.31l-1.66,2.88h-1.04v-4.83h1.02v2.81c0,.11,0,.22-.02.33s-.02.23-.04.35h.03c.04-.11.09-.22.14-.33s.1-.21.16-.31l1.65-2.86h1.04v.02Z"/>
        <path class="k" d="M52.02,7.88c.42,0,.74.04.99.11s.42.2.52.38c.11.18.16.44.16.77s-.06.61-.19.79-.34.28-.64.31v.04c.36.03.62.16.76.38s.21.52.21.91c0,.33-.06.59-.16.77-.11.18-.28.31-.52.38s-.54.11-.92.11c-.26,0-.5,0-.71-.02-.21-.01-.41-.04-.6-.07s-.37-.07-.55-.12l.08-.72c.27.04.53.07.79.09.26.02.53.04.79.04.18,0,.32-.02.42-.05.1-.04.18-.1.22-.2s.07-.24.07-.42c0-.19-.02-.34-.07-.44-.04-.1-.12-.17-.23-.22s-.25-.06-.44-.06h-.94v-.73h.94c.16-.01.28-.03.37-.06.09-.03.16-.09.2-.18s.06-.21.06-.37-.02-.29-.06-.38-.11-.15-.21-.18c-.1-.03-.24-.05-.41-.05-.26,0-.5,0-.72.03-.22.02-.45.04-.68.06l-.08-.75c.23-.05.47-.09.71-.11s.52-.03.84-.03h0Z"/>
        <path class="k" d="M56.95,7.93c.09,0,.17.03.23.08.07.05.11.12.14.2l1.4,4.55h-1.09l-.99-3.55-.06-.24c-.02-.08-.04-.16-.05-.23h-.19c0,.07-.03.15-.05.23l-.06.24-.99,3.55h-1.1l1.41-4.55c.02-.08.07-.15.14-.2s.15-.08.23-.08h1.03ZM57.69,10.69v.8h-2.51v-.8h2.51Z"/>
        <path class="k" d="M65.25,12.02v.75h-4.9v-.75h4.9ZM61.21,12.72l-.08,1.11h-.77v-1.11h.85ZM64.62,7.93v4.83h-1.07v-4.08h-.64c-.14,0-.24.03-.3.1-.07.07-.1.17-.11.32-.03.35-.06.67-.1.95-.04.28-.08.55-.14.79s-.12.47-.2.68-.17.42-.28.62-.23.41-.38.63h-.9c.22-.41.4-.82.53-1.24.13-.42.23-.85.3-1.29s.12-.87.15-1.31c.02-.29.13-.53.33-.71.19-.18.45-.27.77-.27h2.03v-.02ZM65.25,12.72v1.11h-.76l-.08-1.11h.85,0Z"/>
        <path class="k" d="M68.2,7.93c.09,0,.17.03.23.08.07.05.11.12.14.2l1.4,4.55h-1.09l-.99-3.55c-.02-.08-.04-.16-.06-.24s-.04-.16-.05-.23h-.19c-.01.07-.03.15-.05.23-.02.08-.04.16-.06.24l-.99,3.55h-1.1l1.41-4.55c.02-.08.07-.15.14-.2s.15-.08.23-.08h1.03ZM68.94,10.69v.8h-2.51v-.8h2.51Z"/>
        <path class="k" d="M71.55,7.93v4.83h-1.07v-4.83h1.07ZM73.34,9.79v.8h-1.85v-.8h1.85ZM74.34,7.93v4.83h-1.07v-4.83h1.07Z"/>
        <path class="k" d="M76.42,7.93v4.83h-1.07v-4.83h1.07ZM78.21,9.79v.8h-1.85v-.8h1.85ZM79.2,7.93v4.83h-1.07v-4.83h1.07Z"/>
        <path class="k" d="M81.28,7.93v4.83h-1.07v-4.83h1.07ZM81.99,9.73c.44,0,.79.05,1.05.14s.44.26.55.48c.11.22.16.53.16.92s-.05.71-.16.94-.28.38-.51.47-.53.13-.91.13h-.77c-.22,0-.42,0-.6-.02-.18,0-.37-.02-.57-.04l.1-.76c.11,0,.31,0,.6.01s.64,0,1.05,0c.19,0,.33-.02.42-.06.1-.04.16-.12.2-.23.04-.11.06-.27.06-.48s-.02-.37-.06-.48-.1-.2-.2-.25-.24-.07-.43-.07h-1.67v-.72h1.67l.02.02ZM85.51,7.93v4.83h-1.07v-4.83h1.07Z"/>
        <path class="k" d="M87.27,7.93l1.11,2.35-1.2,2.48h-1.09l1.28-2.48-1.18-2.35s1.08,0,1.08,0ZM88.79,9.94v.66h-1.11v-.66h1.11ZM90.36,7.93l-1.18,2.35,1.28,2.48h-1.09l-1.2-2.48,1.11-2.35s1.08,0,1.08,0Z"/>
      </g>
    </g>
  </g>
</svg>